<svg width="81" height="81" viewBox="0 0 81 81" fill="none" xmlns="http://www.w3.org/2000/svg">
<circle cx="40.0566" cy="40.5405" r="39" stroke="#5B82EF" stroke-width="2"/>
<path d="M53.3379 57.5093L50.9941 59.853C48.8066 62.0405 45.3691 62.0405 43.1816 59.853C40.9941 57.6655 40.9941 54.228 43.1816 52.0405L45.5254 49.6968" stroke="#5B82EF" stroke-width="2" stroke-miterlimit="10" stroke-linecap="round" stroke-linejoin="round"/>
<path d="M48.6504 46.5718L50.9941 44.228C53.1816 42.0405 56.6191 42.0405 58.8066 44.228C60.9941 46.4155 60.9941 49.853 58.8066 52.0405L56.4629 54.3843" stroke="#5B82EF" stroke-width="2" stroke-miterlimit="10" stroke-linecap="round" stroke-linejoin="round"/>
<path d="M48.6504 54.3843L53.3379 49.6968" stroke="#5B82EF" stroke-width="2" stroke-miterlimit="10" stroke-linecap="round" stroke-linejoin="round"/>
<path d="M43.1816 42.978C45.9941 41.4155 47.8691 38.2905 47.8691 34.853C47.8691 33.1343 49.2754 31.728 50.9941 31.728V28.1343C50.9941 23.7593 47.7129 19.6968 43.3379 19.228C40.2129 18.9155 37.4004 20.1655 35.6816 22.5093C34.4316 22.1968 33.1816 22.353 31.6191 23.4468C30.0566 24.5405 29.1191 26.5718 29.1191 28.603V30.1655V32.5093V34.5405C29.1191 37.978 30.9941 41.2593 33.8066 42.978C33.8066 46.5718 31.3066 49.5405 27.8691 50.478C23.8066 51.5718 20.8379 54.853 19.9004 58.9155C19.9004 59.3843 20.2129 59.853 20.8379 59.853H43.1816" stroke="#5B82EF" stroke-width="2" stroke-miterlimit="10" stroke-linecap="round" stroke-linejoin="round"/>
</svg>
