<svg width="81" height="81" viewBox="0 0 81 81" fill="none" xmlns="http://www.w3.org/2000/svg">
<circle cx="40.9917" cy="40.5405" r="39" stroke="#5B82EF" stroke-width="2"/>
<g clip-path="url(#clip0)">
<path d="M40.7049 59.7528H36.017C35.6803 59.7528 35.4072 60.0259 35.4072 60.3626C35.4072 60.6996 35.6803 60.9723 36.017 60.9723H40.7049C41.0419 60.9723 41.3146 60.6996 41.3146 60.3626C41.3146 60.0259 41.0419 59.7528 40.7049 59.7528Z" fill="#5B82EF"/>
<path d="M48.4737 34.4313C48.4737 33.3456 47.65 32.4369 46.5694 32.3305C45.4892 32.2245 44.5043 32.9557 44.2935 34.0208C44.0823 35.0859 44.7143 36.1371 45.7536 36.4507V37.8771C45.5321 37.8207 45.3054 37.7858 45.0776 37.7727C44.4543 36.542 43.1931 35.7663 41.814 35.7648H40.6378V34.9525C40.6374 34.3535 40.1519 33.8684 39.5528 33.8676H37.4505V33.0836C37.4505 32.7469 37.1773 32.4738 36.8407 32.4738C36.5037 32.4738 36.2309 32.7469 36.2309 33.0836V33.8676H34.1679C33.5688 33.8684 33.0837 34.3535 33.0829 34.9525V35.7648H31.9071C29.8877 35.7671 28.2509 37.4039 28.2485 39.4233V45.4411C28.2509 47.4605 29.8877 49.0972 31.9071 49.0996H41.814C43.8338 49.0972 45.4706 47.4605 45.4726 45.4411V44.9345C46.9068 44.6904 48.0541 43.6086 48.3816 42.1914C48.7095 40.7742 48.1541 39.2982 46.9731 38.4491V36.4507C47.8632 36.1808 48.4721 35.361 48.4737 34.4313ZM34.3028 35.0871H39.4183V35.7648H34.3028V35.0871ZM44.253 45.4411C44.2515 46.7872 43.1606 47.8785 41.814 47.8801H31.9071C30.5609 47.8785 29.4696 46.7872 29.468 45.4411V39.4233C29.4696 38.0771 30.5609 36.9859 31.9071 36.9843H41.814C43.1606 36.9859 44.2515 38.0771 44.253 39.4233V45.4411ZM45.4726 43.6888V39.064C46.5226 39.3407 47.2538 40.2903 47.2538 41.376C47.2538 42.4617 46.5226 43.4113 45.4726 43.6884V43.6888ZM45.4726 34.4317C45.473 33.9399 45.8715 33.5413 46.3634 33.5413C46.8552 33.5413 47.2542 33.9399 47.2542 34.4317C47.2542 34.9236 46.8552 35.3225 46.3634 35.3225C45.8715 35.3217 45.473 34.9232 45.4726 34.4313V34.4317Z" fill="#5B82EF"/>
<path d="M32.5884 39.3407H32.5173C31.6757 39.3419 30.9937 40.0239 30.9929 40.8651V41.6928C30.9929 42.0294 31.266 42.3025 31.6027 42.3025H33.503C33.84 42.3025 34.1128 42.0294 34.1128 41.6928V40.8651C34.112 40.0239 33.43 39.3419 32.5884 39.3407ZM32.8932 41.083H32.2124V40.8651C32.2124 40.6968 32.349 40.5602 32.5173 40.5602H32.5884C32.7567 40.5602 32.8932 40.6968 32.8932 40.8651V41.083Z" fill="#5B82EF"/>
<path d="M41.2042 39.3407H41.1328C40.2916 39.3419 39.6096 40.0239 39.6084 40.8651V41.6928C39.6084 42.0294 39.8815 42.3025 40.2182 42.3025H42.1189C42.4555 42.3025 42.7286 42.0294 42.7286 41.6928V40.8651C42.7274 40.0239 42.0454 39.3419 41.2042 39.3407ZM41.5091 41.083H40.8279V40.8651C40.8279 40.6968 40.9645 40.5602 41.1328 40.5602H41.2042C41.3726 40.5602 41.5091 40.6968 41.5091 40.8651V41.083Z" fill="#5B82EF"/>
<path d="M38.7614 43.6558H34.9603C34.6237 43.6558 34.3506 43.9289 34.3506 44.2655V44.337C34.3522 45.6831 35.4435 46.7744 36.7896 46.776H36.9321C38.2783 46.7744 39.3696 45.6831 39.3712 44.337V44.2655C39.3712 43.9289 39.098 43.6558 38.7614 43.6558ZM36.9321 45.5565H36.7896C36.3251 45.5561 35.9012 45.2921 35.6955 44.8753H38.0262C37.821 45.2921 37.3966 45.5561 36.9321 45.5565Z" fill="#5B82EF"/>
<path d="M60.0747 20.5168H55.2951C54.9584 20.5168 54.6853 20.7896 54.6853 21.1266C54.6853 21.4632 54.9584 21.7364 55.2951 21.7364H60.0747C60.4113 21.7364 60.6844 21.4632 60.6844 21.1266C60.6844 20.7896 60.4113 20.5168 60.0747 20.5168Z" fill="#5B82EF"/>
<path d="M46.7133 21.7364H52.6882C53.0248 21.7364 53.2979 21.4632 53.2979 21.1266C53.2979 20.7896 53.0248 20.5168 52.6882 20.5168H46.7133C46.3766 20.5168 46.1035 20.7896 46.1035 21.1266C46.1035 21.4632 46.3766 21.7364 46.7133 21.7364Z" fill="#5B82EF"/>
<path d="M60.0747 23.2325H50.5155C50.1789 23.2325 49.9058 23.5053 49.9058 23.8423C49.9058 24.1789 50.1789 24.4521 50.5155 24.4521H60.0747C60.4114 24.4521 60.6845 24.1789 60.6845 23.8423C60.6845 23.5053 60.4114 23.2325 60.0747 23.2325Z" fill="#5B82EF"/>
<path d="M46.7133 24.4521H47.9082C48.2452 24.4521 48.5179 24.1789 48.5179 23.8423C48.5179 23.5053 48.2452 23.2325 47.9082 23.2325H46.7133C46.3766 23.2325 46.1035 23.5053 46.1035 23.8423C46.1035 24.1789 46.3766 24.4521 46.7133 24.4521Z" fill="#5B82EF"/>
<path d="M60.0745 25.9479H54.8602C54.5236 25.9479 54.2505 26.221 54.2505 26.5576C54.2505 26.8947 54.5236 27.1674 54.8602 27.1674H60.0745C60.4112 27.1674 60.6843 26.8947 60.6843 26.5576C60.6843 26.221 60.4112 25.9479 60.0745 25.9479Z" fill="#5B82EF"/>
<path d="M52.2535 25.9479H46.7133C46.3766 25.9479 46.1035 26.221 46.1035 26.5576C46.1035 26.8947 46.3766 27.1674 46.7133 27.1674H52.2535C52.5905 27.1674 52.8632 26.8947 52.8632 26.5576C52.8632 26.221 52.5905 25.9479 52.2535 25.9479Z" fill="#5B82EF"/>
<path d="M61.1067 16.0405H45.6814C44.1455 16.0421 42.9005 17.287 42.899 18.8229V19.208H30.759C27.6245 19.2116 25.0846 21.7514 25.0811 24.886V60.3626C25.0846 63.4971 27.6245 66.037 30.759 66.0405H45.9632C49.0973 66.037 51.6376 63.4971 51.6412 60.3626V36.1696C51.8274 36.041 52.006 35.9017 52.1759 35.752C53.0512 34.9787 54.0683 33.5821 54.0473 31.2777H61.1067C61.8447 31.2785 62.5529 30.9855 63.0745 30.4635C63.5965 29.9415 63.8895 29.2336 63.8891 28.4957V18.8229C63.8871 17.287 62.6426 16.0421 61.1067 16.0405V16.0405ZM30.759 20.4275H42.899V25.1634H26.3006V24.886C26.3033 22.4247 28.2978 20.4303 30.759 20.4275ZM45.9632 64.821H30.759C28.2978 64.8182 26.3033 62.8238 26.3006 60.3626V55.9045H50.4217V60.3626C50.4189 62.8238 48.4245 64.8182 45.9632 64.821ZM50.4217 54.685H26.3006V26.3826H42.899V28.4957C42.9009 30.0316 44.1455 31.2761 45.6814 31.2777H47.5551C48.2311 31.2777 48.7214 31.4841 49.0537 31.9085C49.9175 33.0113 49.5856 35.3638 49.3852 36.176C49.3328 36.386 49.3955 36.6075 49.5499 36.7587C49.7043 36.91 49.927 36.9683 50.1358 36.912C50.1489 36.9084 50.2541 36.879 50.4217 36.8155V54.685ZM62.6696 28.4957C62.67 28.9105 62.5056 29.3083 62.2123 29.6016C61.9193 29.8946 61.5211 30.0594 61.1067 30.0586H53.7793C53.5193 30.0574 53.2704 30.1638 53.0909 30.3523C52.9083 30.5445 52.8111 30.8025 52.8222 31.0673C52.9234 33.4523 51.7261 34.6786 50.8119 35.2637C50.798 35.2689 50.7845 35.2748 50.771 35.2812C50.9044 34.1006 50.9143 32.3082 50.0156 31.159C49.4447 30.4285 48.617 30.0586 47.5555 30.0586H45.6814C44.8187 30.0574 44.1197 29.3583 44.1185 28.4957V18.8229C44.1197 17.9603 44.8187 17.2612 45.6814 17.26H61.1067C61.9693 17.2612 62.6684 17.9603 62.6696 18.8229V28.4957Z" fill="#5B82EF"/>
</g>
<defs>
<clipPath id="clip0">
<rect width="50" height="50" fill="white" transform="translate(19.4917 16.0405)"/>
</clipPath>
</defs>
</svg>
