<svg width="81" height="81" viewBox="0 0 81 81" fill="none" xmlns="http://www.w3.org/2000/svg">
<circle cx="40.1978" cy="40.3026" r="39" stroke="#5B82EF" stroke-width="2"/>
<g clip-path="url(#clip0)">
<path d="M39.0588 61.4045H40.3609C40.9002 61.4045 41.3375 60.9672 41.3375 60.428C41.3375 59.8886 40.9002 59.4514 40.3609 59.4514H39.0588C38.5195 59.4514 38.0823 59.8886 38.0823 60.428C38.0823 60.9672 38.5195 61.4045 39.0588 61.4045Z" fill="#5B82EF"/>
<path d="M66.1747 38.9204C66.1747 32.6585 61.3343 27.5058 55.1986 27.0073V20.0002C55.1986 17.4099 53.0833 15.3026 50.4833 15.3026H28.9362C26.3362 15.3026 24.2209 17.4099 24.2209 20.0002V60.5963C24.2209 63.1914 26.3322 65.3026 28.9273 65.3026H50.4922C53.0874 65.3026 55.1986 63.1914 55.1986 60.5963V50.8335C61.3343 50.3349 66.1747 45.1822 66.1747 38.9204ZM44.2035 45.4417L42.3714 49.1289C42.2105 49.4526 42.2417 49.8388 42.4525 50.1326C42.6631 50.4262 43.0189 50.5802 43.3773 50.531L49.1519 49.7473C50.4486 50.3564 51.8207 50.7205 53.2455 50.8343V55.5534H26.1741V23.559H53.2455V27.0073C47.1098 27.5057 42.2694 32.6585 42.2694 38.9204C42.2695 41.2592 42.9363 43.5011 44.2035 45.4417ZM28.9362 17.2557H50.4833C52.0064 17.2557 53.2455 18.4868 53.2455 20.0002V21.6058H26.1741V20.0002C26.1741 18.4868 27.4131 17.2557 28.9362 17.2557ZM53.2455 60.5963C53.2455 62.1144 52.0104 63.3495 50.4922 63.3495H28.9273C27.4092 63.3495 26.1741 62.1144 26.1741 60.5963V57.5065H53.2455V60.5963ZM54.222 48.9198C52.6496 48.9198 51.145 48.5655 49.75 47.8668C49.6137 47.7985 49.4639 47.7634 49.3127 47.7634C49.269 47.7634 49.225 47.7663 49.1814 47.7722L44.9404 48.3479L46.2083 45.796C46.3701 45.4705 46.3376 45.0819 46.1241 44.7878C44.8801 43.0742 44.2226 41.0453 44.2226 38.9204C44.2226 33.4066 48.7084 28.9209 54.2221 28.9209C59.7358 28.9209 64.2216 33.4066 64.2216 38.9204C64.2216 44.4342 59.7358 48.9198 54.222 48.9198Z" fill="#5B82EF"/>
<path d="M53.32 33.9794C53.6828 34.8636 54.9961 34.7349 55.1794 33.7967C55.3701 32.8609 54.205 32.2362 53.5319 32.9159C53.2552 33.1855 53.168 33.6245 53.32 33.9794Z" fill="#5B82EF"/>
<path d="M55.2692 38.1562C55.8086 38.1562 56.2458 37.7189 56.2458 37.1797C56.2458 36.6403 55.8086 36.2031 55.2692 36.2031H53.1748C52.6354 36.2031 52.1982 36.6403 52.1982 37.1797C52.1982 37.7189 52.6354 38.1562 53.1748 38.1562H53.2455V41.7613H53.1748C52.6354 41.7613 52.1982 42.1986 52.1982 42.7379C52.1982 43.2772 52.6354 43.7145 53.1748 43.7145H55.2692C55.8086 43.7145 56.2458 43.2772 56.2458 42.7379C56.2458 42.1986 55.8086 41.7613 55.2692 41.7613H55.1985V38.1562H55.2692Z" fill="#5B82EF"/>
</g>
<defs>
<clipPath id="clip0">
<rect width="50" height="50" fill="white" transform="translate(20.1978 15.3026)"/>
</clipPath>
</defs>
</svg>
