<svg width="81" height="81" viewBox="0 0 81 81" fill="none" xmlns="http://www.w3.org/2000/svg">
<circle cx="40.2998" cy="40.5405" r="39" stroke="#5B82EF" stroke-width="2"/>
<g clip-path="url(#clip0)">
<path d="M61.9493 49.9163C61.6285 49.6972 61.1911 49.78 60.9723 50.1008L59.3572 52.4679C58.8353 53.2329 58.541 54.1263 58.5064 55.0519L58.3407 59.4948C58.3259 59.8912 58.6427 60.2239 59.0437 60.2239C59.4199 60.2239 59.7317 59.9262 59.7458 59.5471L59.9115 55.1043C59.9362 54.4438 60.1461 53.8062 60.5187 53.2603L62.1338 50.8932C62.3527 50.5725 62.27 50.1352 61.9493 49.9163Z" fill="#5B82EF"/>
<path d="M63.3151 42.5011L59.0747 35.9225V23.701C59.0747 22.1329 57.799 20.8569 56.2308 20.8569H24.3664C22.7983 20.8569 21.5225 22.1328 21.5225 23.701V29.1022C21.5225 29.4905 21.8373 29.8052 22.2255 29.8052C22.6138 29.8052 22.9285 29.4905 22.9285 29.1022V23.701C22.9285 22.9081 23.5736 22.263 24.3664 22.263H56.2307C57.0235 22.263 57.6686 22.9081 57.6686 23.701V44.9434C57.6686 45.142 57.6265 45.3357 57.5493 45.514L56.1195 43.9634V24.6383C56.1195 24.1829 55.7518 23.8122 55.3 23.8122H50.5237C50.1354 23.8122 49.8207 24.1269 49.8207 24.5152C49.8207 24.9036 50.1354 25.2183 50.5237 25.2183H54.7135V42.4387L52.367 39.8942C51.5581 39.0169 50.2297 38.9757 49.365 39.7142H38.1199C37.7316 39.7142 37.4169 40.0288 37.4169 40.4172C37.4169 40.8055 37.7316 41.1202 38.1199 41.1202H48.6193C48.5694 41.5579 48.6499 42.0113 48.8737 42.4155L49.433 43.4261H31.1641L31.7235 42.4156C31.79 42.2954 31.8427 42.1705 31.8845 42.0432L32.1216 42.2189C32.247 42.3118 32.3939 42.3571 32.5396 42.3571C32.738 42.3571 32.9344 42.2734 33.0729 42.1126L35.2013 39.639C35.4546 39.3447 35.4213 38.9008 35.127 38.6476C34.8327 38.3943 34.3888 38.4277 34.1356 38.722L32.4334 40.7002L31.5397 40.0382C31.4791 39.9598 31.414 39.8839 31.3416 39.8133C30.4689 38.9604 29.0617 38.9925 28.2302 39.8942L26.6864 41.5684V25.2182H47.7129C48.1012 25.2182 48.4159 24.9035 48.4159 24.5151C48.4159 24.1268 48.1012 23.8121 47.7129 23.8121H26.0998C25.648 23.8121 25.2804 24.1828 25.2804 24.6382V43.093L23.0479 45.514C22.9706 45.3357 22.9285 45.142 22.9285 44.9434V31.913C22.9285 31.5247 22.6138 31.21 22.2255 31.21C21.8373 31.21 21.5225 31.5247 21.5225 31.913V35.9225L17.2821 42.5011C15.9408 44.5821 15.9759 47.2481 17.3713 49.293L20.0786 53.2605C20.4511 53.8063 20.661 54.444 20.6857 55.1043L20.8515 59.5472C20.8656 59.9268 21.1809 60.2359 21.5802 60.2236C21.9681 60.2092 22.271 59.8828 22.2565 59.4949L22.0907 55.0519C22.0561 54.1265 21.762 53.233 21.2401 52.468L18.5327 48.5005C17.4566 46.9236 17.4296 44.8676 18.4639 43.2629L21.5225 38.5177V44.9434C21.5225 45.5406 21.7112 46.1163 22.0518 46.5942L21.6718 47.0062C21.4086 47.2917 21.4266 47.7364 21.712 47.9996C21.9976 48.2628 22.4422 48.2448 22.7055 47.9593L29.2638 40.8473C29.5529 40.5338 30.047 40.5141 30.3589 40.8188C30.604 41.0583 30.6593 41.4349 30.4933 41.7346L26.5506 48.858C26.2601 49.3828 26.3188 50.021 26.6999 50.4838C27.4665 51.4152 27.6957 52.701 27.298 53.8398C27.1022 54.4006 26.9959 54.986 26.982 55.5798L26.9063 58.8377C26.8972 59.2305 27.2125 59.5571 27.6094 59.5571C27.9901 59.5571 28.3031 59.2531 28.312 58.8705L28.3877 55.6126C28.3981 55.1657 28.4781 54.7253 28.6254 54.3034C29.1839 52.7041 28.862 50.8982 27.7854 49.5902C27.7736 49.5758 27.7718 49.5552 27.7809 49.5389L28.7504 47.7872H51.8469L52.8164 49.539C52.8255 49.5553 52.8235 49.5759 52.8116 49.5902C51.7352 50.8981 51.4133 52.7041 51.9718 54.3035C52.119 54.7252 52.1991 55.1655 52.2094 55.6126L52.2852 58.8705C52.294 59.2496 52.6043 59.5635 53.0044 59.557C53.3926 59.5479 53.7 59.226 53.6909 58.8377L53.615 55.5798C53.6012 54.9858 53.495 54.4004 53.2991 53.8398C52.9015 52.7011 53.1306 51.4152 53.8972 50.4838C54.2783 50.0209 54.3369 49.3826 54.0465 48.858L50.1038 41.7346C49.9379 41.4349 49.9932 41.0583 50.2383 40.8187C50.5513 40.513 51.0457 40.5352 51.3334 40.8472L57.8918 47.9592C58.1551 48.2447 58.5999 48.2627 58.8852 47.9996C59.1706 47.7363 59.1886 47.2916 58.9255 47.0061L58.5455 46.5941C58.8862 46.1163 59.0747 45.5405 59.0747 44.9433V38.5176L62.1333 43.2629C63.0229 44.6431 63.1382 46.3541 62.4416 47.8398C62.2768 48.1914 62.4282 48.6101 62.7797 48.7748C63.1298 48.9389 63.5492 48.7898 63.7148 48.4367C64.618 46.5097 64.4686 44.2908 63.3151 42.5011ZM29.5286 46.3812L30.386 44.8321H50.2113L51.0687 46.3812H29.5286Z" fill="#5B82EF"/>
<path d="M24.8257 34.8298V33.8145C24.8257 33.4261 24.5109 33.1115 24.1227 33.1115C23.7344 33.1115 23.4197 33.4261 23.4197 33.8145V34.8298C23.4197 35.2182 23.7344 35.5328 24.1227 35.5328C24.5109 35.5328 24.8257 35.2182 24.8257 34.8298Z" fill="#5B82EF"/>
<path d="M35.1268 27.4727C34.8325 27.2195 34.3887 27.2528 34.1354 27.5472L32.4332 29.5254L31.4051 28.7639C31.0932 28.5328 30.6528 28.5983 30.4217 28.9104C30.1906 29.2223 30.2562 29.6626 30.5682 29.8936L32.1214 31.0441C32.2468 31.137 32.3936 31.1822 32.5395 31.1822C32.7378 31.1822 32.9343 31.0986 33.0727 30.9378L35.2012 28.4642C35.4544 28.1698 35.4212 27.726 35.1268 27.4727Z" fill="#5B82EF"/>
<path d="M51.3506 28.5394H38.12C37.7318 28.5394 37.417 28.8541 37.417 29.2424C37.417 29.6308 37.7318 29.9455 38.12 29.9455H51.3506C51.7389 29.9455 52.0536 29.6308 52.0536 29.2424C52.0536 28.8541 51.7389 28.5394 51.3506 28.5394Z" fill="#5B82EF"/>
<path d="M51.3506 34.1268H38.12C37.7318 34.1268 37.417 34.4415 37.417 34.8299C37.417 35.2182 37.7318 35.5329 38.12 35.5329H51.3506C51.7389 35.5329 52.0536 35.2182 52.0536 34.8299C52.0536 34.4415 51.7389 34.1268 51.3506 34.1268Z" fill="#5B82EF"/>
<path d="M34.4039 33.0888C34.1294 32.8143 33.6842 32.8143 33.4098 33.0889L32.6631 33.8356L31.9164 33.0889C31.6418 32.8143 31.1967 32.8142 30.9222 33.0888C30.6477 33.3634 30.6477 33.8085 30.9222 34.083L31.6689 34.8298L30.9222 35.5765C30.6477 35.8511 30.6477 36.2962 30.9222 36.5707C31.0595 36.7079 31.2394 36.7765 31.4193 36.7765C31.5992 36.7765 31.7792 36.7079 31.9164 36.5706L32.6631 35.8239L33.4098 36.5706C33.547 36.7079 33.727 36.7765 33.9069 36.7765C34.0867 36.7765 34.2667 36.7079 34.4039 36.5707C34.6785 36.2962 34.6785 35.851 34.4039 35.5765L33.6572 34.8298L34.4039 34.083C34.6785 33.8085 34.6785 33.3634 34.4039 33.0888Z" fill="#5B82EF"/>
</g>
<defs>
<clipPath id="clip0">
<rect width="48" height="48" fill="white" transform="translate(16.2998 16.5405)"/>
</clipPath>
</defs>
</svg>
