<svg width="46" height="45" viewBox="0 0 46 45" fill="none" xmlns="http://www.w3.org/2000/svg">
<path d="M4.2502 18.0003C4.44955 18.0015 4.64116 17.9232 4.7827 17.7828L7.7827 14.7828C8.07679 14.4887 8.07679 14.0119 7.7827 13.7178C7.48861 13.4237 7.01179 13.4237 6.7177 13.7178L3.7177 16.7178C3.57571 16.8587 3.49585 17.0503 3.49585 17.2503C3.49585 17.4503 3.57571 17.642 3.7177 17.7828C3.85924 17.9232 4.05085 18.0015 4.2502 18.0003Z" fill="white"/>
<path d="M4.2502 22.5003C4.44955 22.5015 4.64116 22.4232 4.7827 22.2828L12.2827 14.7828C12.5768 14.4887 12.5768 14.0119 12.2827 13.7178C11.9886 13.4237 11.5118 13.4237 11.2177 13.7178L3.7177 21.2178C3.57571 21.3586 3.49585 21.5503 3.49585 21.7503C3.49585 21.9503 3.57571 22.142 3.7177 22.2828C3.85924 22.4232 4.05085 22.5015 4.2502 22.5003Z" fill="white"/>
<path d="M43.25 0.000305176H23.75C22.5074 0.000305176 21.5 1.00766 21.5 2.25031V10.5003H4.25C2.17893 10.5003 0.5 12.1792 0.5 14.2503V33.7503C0.5 35.8214 2.17893 37.5003 4.25 37.5003H12.5V40.5003H10.25C9.00736 40.5003 8 41.5077 8 42.7503C8 43.9929 9.00736 45.0003 10.25 45.0003H43.25C44.4926 45.0003 45.5 43.9929 45.5 42.7503V2.25031C45.5 1.00766 44.4926 0.000305176 43.25 0.000305176ZM4.25 12.0003H31.25C32.4926 12.0003 33.5 13.0077 33.5 14.2503V32.2503H2V14.2503C2 13.0077 3.00736 12.0003 4.25 12.0003ZM2 33.7503H33.5C33.5 34.9929 32.4926 36.0003 31.25 36.0003H4.25C3.00736 36.0003 2 34.9929 2 33.7503ZM14 37.5003H21.5V40.5003H14V37.5003ZM23.75 43.5003H10.25C9.83579 43.5003 9.5 43.1645 9.5 42.7503C9.5 42.3361 9.83579 42.0003 10.25 42.0003H25.25C25.6642 42.0003 26 42.3361 26 42.7503C26 43.1645 25.6642 43.5003 25.25 43.5003H23.75ZM44 42.7503C44 43.1645 43.6642 43.5003 43.25 43.5003H27.365C27.6081 42.8127 27.5029 42.0499 27.0826 41.4538C26.6624 40.8578 25.9793 40.5024 25.25 40.5003H23V37.5003H31.25C33.3211 37.5003 35 35.8214 35 33.7503V14.2503C35 12.1792 33.3211 10.5003 31.25 10.5003H23V2.25031C23 1.83609 23.3358 1.50031 23.75 1.50031H43.25C43.6642 1.50031 44 1.83609 44 2.25031V42.7503Z" fill="white"/>
<path d="M41 3.75031H26C25.1716 3.75031 24.5 4.42188 24.5 5.25031V6.75031C24.5 7.57873 25.1716 8.25031 26 8.25031H41C41.8284 8.25031 42.5 7.57873 42.5 6.75031V5.25031C42.5 4.42188 41.8284 3.75031 41 3.75031ZM26 6.75031V5.25031H41V6.75031H26Z" fill="white"/>
<path d="M39.5 15.0003C40.7426 15.0003 41.75 13.9929 41.75 12.7503C41.75 11.5077 40.7426 10.5003 39.5 10.5003C38.2574 10.5003 37.25 11.5077 37.25 12.7503C37.25 13.9929 38.2574 15.0003 39.5 15.0003ZM39.5 12.0003C39.9142 12.0003 40.25 12.3361 40.25 12.7503C40.25 13.1645 39.9142 13.5003 39.5 13.5003C39.0858 13.5003 38.75 13.1645 38.75 12.7503C38.75 12.3361 39.0858 12.0003 39.5 12.0003Z" fill="white"/>
<path d="M41.75 18.7503C41.75 17.5077 40.7426 16.5003 39.5 16.5003C38.2574 16.5003 37.25 17.5077 37.25 18.7503C37.25 19.9929 38.2574 21.0003 39.5 21.0003C40.7426 21.0003 41.75 19.9929 41.75 18.7503ZM39.5 19.5003C39.0858 19.5003 38.75 19.1645 38.75 18.7503C38.75 18.3361 39.0858 18.0003 39.5 18.0003C39.9142 18.0003 40.25 18.3361 40.25 18.7503C40.25 19.1645 39.9142 19.5003 39.5 19.5003Z" fill="white"/>
<path d="M29.75 39.0003C29.3358 39.0003 29 39.3361 29 39.7503V41.2503C29 41.6645 29.3358 42.0003 29.75 42.0003C30.1642 42.0003 30.5 41.6645 30.5 41.2503V39.7503C30.5 39.3361 30.1642 39.0003 29.75 39.0003Z" fill="white"/>
<path d="M32.75 39.0003C32.3358 39.0003 32 39.3361 32 39.7503V41.2503C32 41.6645 32.3358 42.0003 32.75 42.0003C33.1642 42.0003 33.5 41.6645 33.5 41.2503V39.7503C33.5 39.3361 33.1642 39.0003 32.75 39.0003Z" fill="white"/>
<path d="M35.75 39.0003C35.3358 39.0003 35 39.3361 35 39.7503V41.2503C35 41.6645 35.3358 42.0003 35.75 42.0003C36.1642 42.0003 36.5 41.6645 36.5 41.2503V39.7503C36.5 39.3361 36.1642 39.0003 35.75 39.0003Z" fill="white"/>
<path d="M38.75 39.0003C38.3358 39.0003 38 39.3361 38 39.7503V41.2503C38 41.6645 38.3358 42.0003 38.75 42.0003C39.1642 42.0003 39.5 41.6645 39.5 41.2503V39.7503C39.5 39.3361 39.1642 39.0003 38.75 39.0003Z" fill="white"/>
<path d="M41.75 39.0003C41.3358 39.0003 41 39.3361 41 39.7503V41.2503C41 41.6645 41.3358 42.0003 41.75 42.0003C42.1642 42.0003 42.5 41.6645 42.5 41.2503V39.7503C42.5 39.3361 42.1642 39.0003 41.75 39.0003Z" fill="white"/>
</svg>
