<svg width="46" height="45" viewBox="0 0 46 45" fill="none" xmlns="http://www.w3.org/2000/svg">
<path d="M44.8408 34.0468C45.2049 34.0468 45.5 33.7517 45.5 33.3877V24.5657C45.5 22.7483 44.0215 21.2698 42.2041 21.2698H22.5962C24.2589 19.6789 25.1887 17.5115 25.1876 15.2098V14.5905H25.4775C26.8464 14.5905 27.96 13.4768 27.96 12.108C27.96 10.7391 26.8464 9.62547 25.4775 9.62547H25.1879V4.91067C25.1879 2.20311 22.9851 0.000305176 20.2775 0.000305176H13.3299C10.6224 0.000305176 8.41956 2.20311 8.41956 4.91067V9.62547H8.12987C6.76106 9.62547 5.6474 10.7391 5.6474 12.108C5.6474 13.4768 6.76106 14.5905 8.12987 14.5905H8.41982V15.2098C8.41982 18.2594 10.0564 20.9337 12.4971 22.4011V23.6798C12.4971 24.1918 12.1343 24.6429 11.634 24.7525L5.15908 26.1755C3.84301 26.4648 2.65332 27.2025 1.80913 28.2525C0.964942 29.3025 0.5 30.6229 0.5 31.9705V44.3411C0.5 44.7052 0.795137 45.0003 1.15918 45.0003C1.52322 45.0003 1.81836 44.7052 1.81836 44.3411V41.0452H7.36039V44.3411C7.36039 44.7052 7.65553 45.0003 8.01957 45.0003C8.38361 45.0003 8.67875 44.7052 8.67875 44.3411V38.9031C8.67875 38.539 8.38361 38.2439 8.01957 38.2439C7.65553 38.2439 7.36039 38.539 7.36039 38.9031V39.7269H1.81836V31.9705C1.81836 29.8204 3.34238 27.9247 5.44209 27.463L11.2421 26.1884C12.6112 27.7824 14.5621 28.7019 16.6719 28.7387V39.0677C16.6719 39.894 16.9783 40.6496 17.4824 41.2287C17.0003 41.4887 16.6719 41.9983 16.6719 42.5833V43.4622C16.6719 44.3103 17.3619 45.0003 18.21 45.0003H43.9619C44.81 45.0003 45.5 44.3103 45.5 43.4622V42.5833C45.5 41.9983 45.1716 41.4887 44.6895 41.2287C45.1936 40.6496 45.5 39.894 45.5 39.0677V36.4638C45.5 36.0998 45.2049 35.8047 44.8408 35.8047C44.4768 35.8047 44.1816 36.0998 44.1816 36.4638V39.0677C44.1816 40.1581 43.2946 41.0452 42.2041 41.0452H19.9678C18.8773 41.0452 17.9902 40.1581 17.9902 39.0677V24.5657C17.9902 23.4753 18.8773 22.5882 19.9678 22.5882H42.2041C43.2946 22.5882 44.1816 23.4753 44.1816 24.5657V33.3877C44.1816 33.7517 44.4768 34.0468 44.8408 34.0468ZM25.1879 10.9438H25.4775C26.1194 10.9438 26.6417 11.4661 26.6417 12.108C26.6417 12.7499 26.1194 13.2721 25.4775 13.2721H25.1879V10.9438ZM8.41956 13.2721H8.12987C7.48801 13.2721 6.96576 12.7499 6.96576 12.108C6.96576 11.4661 7.48801 10.9438 8.12987 10.9438H8.41956V13.2721ZM16.6719 24.5657V27.419C15.146 27.3864 13.7225 26.7916 12.6399 25.7496C13.3493 25.3205 13.8154 24.5397 13.8154 23.6798V23.0436C14.7442 23.3991 15.7515 23.5945 16.8037 23.5945C16.8085 23.5945 16.8133 23.5943 16.8181 23.5943C16.7232 23.9015 16.6719 24.2277 16.6719 24.5657ZM18.21 42.3636H43.9619C44.083 42.3636 44.1816 42.4622 44.1816 42.5833V43.4622C44.1816 43.5833 44.083 43.6819 43.9619 43.6819H18.21C18.0888 43.6819 17.9902 43.5833 17.9902 43.4622V42.5833C17.9902 42.4622 18.0888 42.3636 18.21 42.3636ZM20.4375 21.2698H19.9678C19.0647 21.2698 18.2456 21.6351 17.6497 22.2255C17.3693 22.2587 17.0858 22.2762 16.8037 22.2762C12.9078 22.2762 9.73818 19.1062 9.73818 15.2098V10.9226C10.7095 10.873 11.6719 10.7416 12.6075 10.5306C12.9627 10.4504 13.1856 10.0976 13.1055 9.74245C13.0255 9.38738 12.6727 9.16457 12.3174 9.24447C11.4765 9.43413 10.6115 9.55279 9.73792 9.60104V4.91067C9.73792 2.93005 11.3493 1.31866 13.3299 1.31866H20.2775C22.2581 1.31866 23.8695 2.93005 23.8695 4.91067V9.35116C23.234 9.08222 22.631 8.72582 22.0954 8.2949C21.3805 7.72018 20.7835 7.024 20.3207 6.22507C20.1686 5.96307 19.9102 5.78447 19.6117 5.73526C19.3136 5.68613 19.0123 5.77191 18.7854 5.97001C17.9652 6.68368 17.0726 7.30428 16.1322 7.81457C15.7992 7.99545 15.4544 8.1657 15.1072 8.32038C14.7748 8.46865 14.6254 8.85836 14.7736 9.19085C14.9219 9.52325 15.3116 9.67267 15.6441 9.52448C16.0224 9.35582 16.3984 9.17029 16.7612 8.97315C17.6798 8.47463 18.5562 7.87988 19.3717 7.2018C19.8859 8.01022 20.523 8.72239 21.2692 9.32216C22.0416 9.94372 22.9323 10.4374 23.8692 10.7659V15.2096C23.8692 17.0971 23.1343 18.8716 21.7999 20.2059C21.3894 20.6167 20.9314 20.9735 20.4375 21.2698ZM20.5309 11.871C20.1668 11.871 19.8717 12.1661 19.8717 12.5302V14.0211C19.8717 14.3851 20.1668 14.6802 20.5309 14.6802C20.8949 14.6802 21.1901 14.3851 21.1901 14.0211V12.5302C21.1901 12.166 20.8949 11.871 20.5309 11.871ZM27.5703 31.8167C27.5703 33.7552 29.1474 35.3323 31.0859 35.3323C33.0245 35.3323 34.6016 33.7552 34.6016 31.8167C34.6016 29.8782 33.0245 28.3011 31.0859 28.3011C29.1474 28.3011 27.5703 29.8782 27.5703 31.8167ZM33.2832 31.8167C33.2832 33.0283 32.2975 34.014 31.0859 34.014C29.8744 34.014 28.8887 33.0283 28.8887 31.8167C28.8887 30.6051 29.8744 29.6194 31.0859 29.6194C32.2975 29.6194 33.2832 30.6051 33.2832 31.8167ZM13.0765 11.871C12.7125 11.871 12.4174 12.1661 12.4174 12.5302V14.0211C12.4174 14.3851 12.7125 14.6802 13.0765 14.6802C13.4406 14.6802 13.7357 14.3851 13.7357 14.0211V12.5302C13.7357 12.166 13.4406 11.871 13.0765 11.871ZM17.9776 18.5661C17.7216 18.7065 17.307 18.8732 16.7782 18.8672C16.2732 18.8618 15.875 18.7004 15.6298 18.5661C15.3105 18.3908 14.9099 18.5078 14.7349 18.827C14.5599 19.1462 14.6767 19.5468 14.9959 19.7219C15.3731 19.9288 15.9862 20.1773 16.7644 20.1854C17.5494 20.1937 18.2238 19.9345 18.6115 19.7219C18.9308 19.5468 19.0476 19.1462 18.8725 18.827C18.6974 18.5078 18.2968 18.3909 17.9776 18.5661Z" fill="white"/>
</svg>
