<svg width="17" height="24" viewBox="0 0 17 24" fill="none" xmlns="http://www.w3.org/2000/svg">
<circle cx="8.16846" cy="11.4773" r="7.5" stroke="#8FA4DF"/>
<path d="M8.5144 14.6302C9.03003 14.6302 9.48055 14.474 9.86597 14.1615C10.2514 13.849 10.4649 13.4584 10.5066 12.9896H11.8738C11.8477 13.474 11.6811 13.9349 11.3738 14.3724C11.0665 14.8099 10.655 15.1589 10.1394 15.4193C9.62899 15.6797 9.08732 15.8099 8.5144 15.8099C7.36336 15.8099 6.4467 15.4271 5.7644 14.6615C5.08732 13.8907 4.74878 12.8386 4.74878 11.5052V11.2631C4.74878 10.4401 4.89982 9.70837 5.2019 9.06775C5.50399 8.42712 5.93628 7.92973 6.49878 7.57556C7.06649 7.22139 7.73576 7.04431 8.50659 7.04431C9.45451 7.04431 10.241 7.32817 10.866 7.89587C11.4962 8.46358 11.8321 9.20056 11.8738 10.1068H10.5066C10.4649 9.55994 10.2566 9.11202 9.88159 8.76306C9.5118 8.40889 9.05347 8.23181 8.50659 8.23181C7.77222 8.23181 7.2019 8.49744 6.79565 9.02869C6.39461 9.55473 6.19409 10.3177 6.19409 11.3177V11.5912C6.19409 12.5651 6.39461 13.3151 6.79565 13.8412C7.1967 14.3672 7.76961 14.6302 8.5144 14.6302Z" fill="#8FA4DF"/>
</svg>
