<svg width="44" height="45" viewBox="0 0 44 45" fill="none" xmlns="http://www.w3.org/2000/svg">
<path d="M1.56114 43.6819H8.74673V34.865C8.74673 33.6446 9.73963 32.6517 10.9601 32.6517H23.8456C24.2098 32.6517 24.5048 32.9467 24.5048 33.3109C24.5048 33.675 24.2098 33.97 23.8456 33.97H10.9601C10.4667 33.97 10.0651 34.3715 10.0651 34.865V43.6819H28.6677V42.847C27.434 42.9002 26.2898 42.0812 26.0162 40.86C25.4248 40.7472 24.8909 40.4705 24.4642 40.0784H13.8667C13.5026 40.0784 13.2075 39.7834 13.2075 39.4193C13.2075 39.0551 13.5026 38.7601 13.8667 38.7601H23.6033C23.4753 38.3843 23.4167 37.9567 23.4391 37.5583H13.8667C13.5026 37.5583 13.2075 37.2633 13.2075 36.8992C13.2075 36.535 13.5026 36.24 13.8667 36.24H23.8095C24.2498 35.4192 25.0399 34.8128 25.9793 34.6221C26.2624 31.1255 29.1125 28.2464 32.6066 27.9361V27.0438C31.9632 26.7824 31.5079 26.1515 31.5079 25.4154C31.5079 24.6792 31.9632 24.0483 32.6067 23.7869V7.54809C32.6067 6.3845 31.66 5.43783 30.4964 5.43783H8.23643C7.07285 5.43783 6.12618 6.3845 6.12618 7.54809V41.265C6.12618 41.6291 5.83113 41.9241 5.467 41.9241C5.10287 41.9241 4.80782 41.6291 4.80782 41.265V3.42892C4.80782 1.53839 6.34591 0.000305176 8.23643 0.000305176H25.6913C26.0555 0.000305176 26.3505 0.295354 26.3505 0.659485C26.3505 1.02362 26.0555 1.31866 25.6913 1.31866H8.23643C7.07285 1.31866 6.12618 2.26533 6.12618 3.42892V4.84888C6.70855 4.39264 7.44094 4.11956 8.23643 4.11956H30.4964C31.2919 4.11956 32.0243 4.39264 32.6067 4.84888V3.42892C32.6067 2.26533 31.66 1.31866 30.4964 1.31866H28.8145C28.4504 1.31866 28.1554 1.02362 28.1554 0.659485C28.1554 0.295354 28.4504 0.000305176 28.8145 0.000305176H30.4964C32.3869 0.000305176 33.925 1.53839 33.925 3.42892V23.787C34.5684 24.0484 35.0236 24.6793 35.0236 25.4154C35.0236 26.1515 34.5683 26.7823 33.9249 27.0438V27.9357C37.4183 28.2513 40.2693 31.127 40.5532 34.6223C42.0032 34.9171 43.0979 36.2019 43.0979 37.7377C43.0979 39.2864 41.9845 40.5794 40.5162 40.8599C40.2617 41.9956 39.2461 42.8471 38.0346 42.8471H33.9249V43.682H37.1716C37.5357 43.682 37.8308 43.9771 37.8308 44.3412C37.8308 44.7053 37.5357 45.0004 37.1716 45.0004H1.56105C1.19692 45.0004 0.901875 44.7053 0.901875 44.3412C0.901875 43.9771 1.1971 43.6819 1.56114 43.6819ZM39.2568 35.025V35.0247H27.2757V35.0251C27.2736 35.0894 27.2726 38.7601 27.2726 38.7601H39.2595C39.2595 38.7601 39.2587 35.0876 39.2568 35.025ZM25.9537 35.9974C25.252 36.264 24.752 36.9435 24.752 37.7376C24.752 38.5317 25.2519 39.2113 25.9537 39.478V35.9974ZM33.7052 25.4154C33.7052 25.1731 33.5081 24.9759 33.2658 24.9759C33.0234 24.9759 32.8263 25.1731 32.8263 25.4154C32.8263 25.6577 33.0234 25.8548 33.2658 25.8548C33.5081 25.8548 33.7052 25.6577 33.7052 25.4154ZM33.2658 29.2239C30.5716 29.2239 28.1472 31.1005 27.4661 33.7064H39.0662C38.3907 31.1049 36.0182 29.2239 33.2658 29.2239ZM41.7795 37.7376C41.7795 36.9436 41.2797 36.2643 40.5783 35.9976V39.4193V39.4778C41.2797 39.211 41.7795 38.5316 41.7795 37.7376ZM39.2599 40.3035C39.2595 40.2285 39.2595 40.1535 39.2595 40.0784H27.2725C27.1996 40.8144 27.7148 41.5286 28.4968 41.5286H38.0346C38.7102 41.5286 39.2599 40.979 39.2599 40.3035ZM32.6067 42.847H29.9861V43.6819H32.6067V42.847Z" fill="white"/>
<path d="M37.3289 38.1816C36.9647 38.1816 36.6697 37.8865 36.6697 37.5224C36.6697 37.191 36.4002 36.9216 36.0689 36.9216C35.7375 36.9216 35.468 37.191 35.468 37.5224C35.468 37.8865 35.173 38.1816 34.8089 38.1816C34.4447 38.1816 34.1497 37.8865 34.1497 37.5224C34.1497 36.4642 35.0107 35.6032 36.0689 35.6032C37.1271 35.6032 37.988 36.4642 37.988 37.5224C37.988 37.8865 37.693 38.1816 37.3289 38.1816Z" fill="white"/>
<path d="M31.7239 38.1816C31.3597 38.1816 31.0647 37.8865 31.0647 37.5224C31.0647 37.191 30.7952 36.9216 30.4639 36.9216C30.1325 36.9216 29.8631 37.191 29.8631 37.5224C29.8631 37.8865 29.568 38.1816 29.2039 38.1816C28.8397 38.1816 28.5447 37.8865 28.5447 37.5224C28.5447 36.4642 29.4057 35.6032 30.4639 35.6032C31.5221 35.6032 32.3831 36.4642 32.3831 37.5224C32.3831 37.8865 32.0879 38.1816 31.7239 38.1816Z" fill="white"/>
<path d="M25.275 30.9776C25.0508 31.0934 24.828 31.088 24.6066 30.9612L19.1782 27.5862H12.1422C10.2699 27.5862 8.74669 26.0629 8.74669 24.1907C8.74669 22.3184 10.2699 20.7953 12.1422 20.7953H26.5906C28.4629 20.7953 29.9861 22.3184 29.9861 24.1907C29.9861 26.0629 28.4629 27.5862 26.5906 27.5862H25.6139V30.4014C25.6139 30.6408 25.4841 30.8613 25.275 30.9776ZM26.5906 26.2678C27.7359 26.2678 28.6677 25.336 28.6677 24.1907C28.6677 23.0455 27.7359 22.1136 26.5906 22.1136H12.1422C10.9969 22.1136 10.0651 23.0455 10.0651 24.1907C10.0651 25.336 10.9969 26.2678 12.1422 26.2678H19.3663C19.4893 26.2678 19.6099 26.3023 19.7144 26.3672L24.2954 29.2154V26.927C24.2954 26.5628 24.5905 26.2678 24.9546 26.2678H26.5906Z" fill="white"/>
<path d="M12.1423 8.2645H26.5906C28.4629 8.2645 29.9861 9.78773 29.9861 11.66C29.9861 13.5322 28.4629 15.0555 26.5906 15.0555H19.5546L14.1261 18.4305C13.6939 18.6994 13.1189 18.3783 13.1189 17.8707V15.0555H12.1422C10.2699 15.0555 8.74669 13.5322 8.74669 11.66C8.74669 9.78773 10.27 8.2645 12.1423 8.2645ZM12.1423 13.7371H13.7782C14.1423 13.7371 14.4374 14.0321 14.4374 14.3963V16.6847L19.0184 13.8365C19.1228 13.7715 19.2435 13.7371 19.3664 13.7371H26.5906C27.7359 13.7371 28.6677 12.8053 28.6677 11.66C28.6677 10.5147 27.7359 9.58285 26.5906 9.58285H12.1422C10.9969 9.58285 10.0651 10.5147 10.0651 11.66C10.0651 12.8053 10.997 13.7371 12.1423 13.7371Z" fill="white"/>
<path d="M17.9697 11.0624H26.6128C26.9769 11.0624 27.272 11.3574 27.272 11.7216C27.272 12.0857 26.9769 12.3807 26.6128 12.3807H17.9697C17.6056 12.3807 17.3105 12.0857 17.3105 11.7216C17.3105 11.3574 17.6057 11.0624 17.9697 11.0624Z" fill="white"/>
<path d="M21.1345 24.172C21.1345 23.8079 21.4295 23.5128 21.7937 23.5128H26.6128C26.9769 23.5128 27.272 23.8079 27.272 24.172C27.272 24.5361 26.9769 24.8312 26.6128 24.8312H21.7937C21.4296 24.8312 21.1345 24.536 21.1345 24.172Z" fill="white"/>
<path d="M18.8987 24.8312H12.1842C11.8201 24.8312 11.525 24.5361 11.525 24.172C11.525 23.8079 11.8201 23.5128 12.1842 23.5128H18.8987C19.2628 23.5128 19.5579 23.8079 19.5579 24.172C19.5579 24.5361 19.2627 24.8312 18.8987 24.8312Z" fill="white"/>
<path d="M12.184 11.0624H15.376C15.7401 11.0624 16.0352 11.3574 16.0352 11.7216C16.0352 12.0857 15.7401 12.3807 15.376 12.3807H12.184C11.8198 12.3807 11.5248 12.0857 11.5248 11.7216C11.5248 11.3574 11.8199 11.0624 12.184 11.0624Z" fill="white"/>
<path d="M24.7361 41.2802C25.1002 41.2802 25.3953 41.5752 25.3953 41.9393C25.3953 42.3035 25.1002 42.5985 24.7361 42.5985H17.7683C17.4042 42.5985 17.1091 42.3035 17.1091 41.9393C17.1091 41.5752 17.4042 41.2802 17.7683 41.2802H24.7361Z" fill="white"/>
</svg>
