<svg width="85" height="86" viewBox="0 0 85 86" fill="none" xmlns="http://www.w3.org/2000/svg">
<circle cx="42.5" cy="42.7397" r="41.75" stroke="#5B82EF" stroke-width="1.5"/>
<g clip-path="url(#clip0)">
<path d="M67.8315 21.6508H36.212C35.7616 21.6508 35.3965 21.9794 35.3965 22.3847C35.3965 22.7899 35.7616 23.1185 36.212 23.1185H67.8315C68.2812 23.1185 68.647 23.4477 68.647 23.8524V28.9677H60.479C60.0286 28.9677 59.6636 29.2963 59.6636 29.7016C59.6636 30.1068 60.0286 30.4354 60.479 30.4354H68.647V59.4907C68.647 59.8954 68.2812 60.2246 67.8315 60.2246H63.3825L63.4836 60.1336C63.6794 59.9573 63.7624 59.7035 63.7039 59.4598C63.6455 59.216 63.4535 59.0157 63.1942 58.9278L53.074 55.4992C52.4456 55.2647 51.763 55.8791 52.0235 56.4445L53.6044 60.2244H44.2166C42.4154 55.3761 38.9814 53.095 37.0118 52.1435C38.656 50.9956 39.7966 49.2896 40.0766 47.3432C40.183 47.3525 40.2902 47.3582 40.3986 47.3582C42.1858 47.3582 43.6398 46.0496 43.6398 44.4411C43.6398 43.66 43.2963 42.9503 42.739 42.4262C42.9382 38.7641 41.3118 36.3597 39.8859 34.9741C37.8898 33.0347 34.9725 31.8767 32.0822 31.8767C29.1918 31.8767 26.2746 33.0347 24.2784 34.9742C22.8525 36.3597 21.2262 38.7641 21.4253 42.4262C20.8679 42.9503 20.5245 43.66 20.5245 44.4411C20.5245 46.0496 21.9784 47.3582 23.7656 47.3582C23.874 47.3582 23.9812 47.3525 24.0876 47.3432C24.3676 49.2896 25.5082 50.9955 27.1525 52.1435C25.183 53.0951 21.7489 55.3761 19.9478 60.2244H17.1683C16.7187 60.2244 16.3529 59.8952 16.3529 59.4905V30.4352H57.2174C57.6678 30.4352 58.0328 30.1067 58.0328 29.7014C58.0328 29.296 57.6678 28.9675 57.2174 28.9675H16.3529V23.8522C16.3529 23.4475 16.7187 23.1183 17.1683 23.1183H32.9504C33.4008 23.1183 33.7658 22.7898 33.7658 22.3845C33.7658 21.9791 33.4008 21.6506 32.9504 21.6506H17.1683C15.8195 21.6508 14.7222 22.6384 14.7222 23.8523V59.4905C14.7222 60.7045 15.8195 61.6921 17.1683 61.6921H26.1294C26.5798 61.6921 26.9448 61.3635 26.9448 60.9582C26.9448 60.5529 26.5798 60.2243 26.1294 60.2243H21.6756C22.5516 58.0873 23.8671 56.3093 25.5979 54.9229L28.5769 59.2326C28.8019 59.5725 29.3348 59.6835 29.7032 59.4662L32.0824 58.1203L34.4616 59.4662C34.83 59.6835 35.3629 59.5724 35.5879 59.2326L38.5669 54.9229C40.2977 56.3094 41.6132 58.0874 42.4892 60.2243H29.391C28.9406 60.2243 28.5756 60.5528 28.5756 60.9582C28.5756 61.3635 28.9406 61.6921 29.391 61.6921H54.2184L55.8331 65.5527C56.0196 66.0418 56.7788 66.1895 57.1727 65.8131L58.0868 64.9905L61.0033 67.6155C61.307 67.8998 61.8528 67.8998 62.1565 67.6155L65.4864 64.6186C65.8047 64.3321 65.8047 63.8674 65.4864 63.5809L63.3878 61.6921H67.8315C69.1804 61.6921 70.2777 60.7045 70.2777 59.4905V23.8523C70.2777 22.6384 69.1804 21.6508 67.8315 21.6508ZM42.0092 44.4411C42.0092 45.2403 41.2868 45.8905 40.3988 45.8905C40.3133 45.8905 40.2289 45.8847 40.1461 45.8729V43.0095C40.2289 42.9977 40.3132 42.9919 40.3988 42.9919C41.2868 42.9918 42.0092 43.642 42.0092 44.4411ZM24.0184 45.8728C23.9356 45.8846 23.8512 45.8904 23.7657 45.8904C22.8778 45.8904 22.1554 45.2402 22.1554 44.441C22.1554 43.6419 22.8779 42.9917 23.7657 42.9917C23.8513 42.9917 23.9356 42.9975 24.0184 43.0093V45.8728ZM23.7657 41.5241C23.5176 41.5241 23.2763 41.5502 23.044 41.5979C23.1113 38.8683 24.3638 37.0513 25.475 35.9717C27.168 34.3266 29.6381 33.3445 32.0823 33.3445C34.5265 33.3445 36.9966 34.3266 38.6895 35.9716C39.8007 37.0513 41.0533 38.8682 41.1206 41.5979C40.7725 41.5252 40.3892 41.5051 40.0283 41.5429C39.3778 38.1242 36.0634 35.5136 32.0823 35.5136C28.1012 35.5136 24.7867 38.1242 24.1362 41.5429C24.0141 41.5304 23.8906 41.5241 23.7657 41.5241ZM25.6491 46.407V46.4016C25.6491 46.4016 25.6524 42.6008 25.6565 42.5162C25.6565 42.5154 25.6564 42.5147 25.6564 42.514C25.8066 39.4404 28.6308 36.9813 32.0823 36.9813C35.5343 36.9813 38.359 39.4413 38.5081 42.5157V42.5163C38.5121 42.6009 38.5152 46.4016 38.5152 46.4016V46.4071C38.5152 49.5996 35.6294 52.1969 32.0822 52.1969C28.535 52.1968 25.6491 49.5995 25.6491 46.407ZM29.5288 57.8313L26.8888 54.0119C27.5458 53.6079 28.1193 53.3395 28.5193 53.1746L30.983 57.0087L29.5288 57.8313ZM30.6427 53.5475C31.1101 53.6237 31.591 53.6644 32.0824 53.6644C32.5738 53.6644 33.0547 53.6237 33.5221 53.5475L32.0824 55.7879L30.6427 53.5475ZM34.6359 57.8313L33.1817 57.0087L35.6455 53.1747C36.0458 53.3397 36.6192 53.6081 37.276 54.0119L34.6359 57.8313ZM63.7566 64.0998L61.5798 66.0589L58.6632 63.4339C58.3449 63.1473 57.8285 63.1473 57.5101 63.4339L56.9138 63.9706L54.1839 57.4434L61.4361 59.9005L60.8399 60.4371C60.5215 60.7236 60.5215 61.1884 60.8399 61.4749L63.7566 64.0998Z" fill="#5B82EF"/>
<path d="M21.4885 26.8046C21.9968 26.3031 21.957 25.5256 21.3997 25.0682C20.8425 24.6107 19.9786 24.6465 19.4704 25.1481C18.9621 25.6496 19.0018 26.427 19.5591 26.8845C20.1164 27.3419 20.9802 27.3062 21.4885 26.8046Z" fill="#5B82EF"/>
<path d="M25.8159 26.441C26.1062 25.8146 25.7773 25.0949 25.0812 24.8336C24.3852 24.5723 23.5856 24.8683 23.2952 25.4947C23.0049 26.1212 23.3338 26.8409 24.0298 27.1022C24.7259 27.3635 25.5255 27.0675 25.8159 26.441Z" fill="#5B82EF"/>
<path d="M27.2712 25.9718C27.2712 26.6495 27.8838 27.2007 28.6366 27.2007C29.3895 27.2007 30.002 26.6495 30.002 25.9718C30.002 25.2942 29.3895 24.7429 28.6366 24.7429C27.8838 24.7429 27.2712 25.2942 27.2712 25.9718Z" fill="#5B82EF"/>
<path d="M30.6218 39.8146H33.5425C33.9929 39.8146 34.3579 39.486 34.3579 39.0807C34.3579 38.6755 33.9929 38.3469 33.5425 38.3469H30.6218C30.1714 38.3469 29.8064 38.6755 29.8064 39.0807C29.8065 39.486 30.1715 39.8146 30.6218 39.8146Z" fill="#5B82EF"/>
<path d="M35.2932 44.7627C35.7436 44.7627 36.1086 44.4341 36.1086 44.0288V42.9722C36.1086 42.5669 35.7436 42.2383 35.2932 42.2383C34.8428 42.2383 34.4778 42.5668 34.4778 42.9722V44.0288C34.4778 44.4341 34.8428 44.7627 35.2932 44.7627Z" fill="#5B82EF"/>
<path d="M28.8713 44.7627C29.3217 44.7627 29.6868 44.4341 29.6868 44.0288V42.9722C29.6868 42.5669 29.3217 42.2383 28.8713 42.2383C28.4209 42.2383 28.0559 42.5668 28.0559 42.9722V44.0288C28.056 44.4341 28.421 44.7627 28.8713 44.7627Z" fill="#5B82EF"/>
<path d="M28.5433 49.929C28.6443 49.9466 30.6666 50.2823 32.0823 49.1054C32.9695 49.8431 34.095 49.9865 34.8364 49.9865C35.278 49.9865 35.5836 49.9355 35.6213 49.929C35.952 49.8709 36.2089 49.6358 36.2679 49.3373C36.544 47.9411 36.2936 46.8138 35.5237 45.9867C34.453 44.8365 32.7603 44.7124 32.0824 44.7124C31.4043 44.7124 29.7116 44.8365 28.641 45.9867C27.8711 46.8139 27.6207 47.9412 27.8968 49.3373C27.9557 49.6358 28.2127 49.8709 28.5433 49.929ZM29.891 46.9292C30.5203 46.253 31.6331 46.18 32.0823 46.18C32.5315 46.18 33.644 46.2529 34.2736 46.9292C34.6269 47.3088 34.7822 47.8425 34.738 48.5202C34.1545 48.5056 33.2697 48.3438 32.7974 47.5677C32.6544 47.3325 32.3802 47.1862 32.0823 47.1862C31.7843 47.1862 31.5101 47.3324 31.3671 47.5677C30.8948 48.3439 30.0103 48.5058 29.4266 48.5203C29.3823 47.8426 29.5376 47.3088 29.891 46.9292Z" fill="#5B82EF"/>
<path d="M31.0837 40.5374C30.6333 40.5374 30.2683 40.866 30.2683 41.2713C30.2683 41.6766 30.6333 42.0052 31.0837 42.0052H33.0809C33.5313 42.0052 33.8963 41.6766 33.8963 41.2713C33.8963 40.866 33.5313 40.5374 33.0809 40.5374H31.0837Z" fill="#5B82EF"/>
<path d="M63.1086 40.8557C63.559 40.8557 63.924 40.5271 63.924 40.1218C63.924 35.8778 60.0875 32.4249 55.3719 32.4249C54.9215 32.4249 54.5565 32.7534 54.5565 33.1588V33.8066C51.0435 34.1717 48.3064 36.8638 48.3064 40.1218C48.3064 43.6282 51.4759 46.4807 55.3719 46.4807C58.9919 46.4807 61.9831 44.0173 62.3889 40.8556H63.1086V40.8557ZM56.1873 33.9356C59.3534 34.2715 61.8721 36.5384 62.2454 39.388H56.1873V33.9356ZM55.3718 45.0131C52.3752 45.0131 49.9371 42.8188 49.9371 40.1218C49.9371 37.6742 51.9452 35.6407 54.5564 35.2856V40.1218C54.5564 40.5271 54.9214 40.8557 55.3718 40.8557H60.7454C60.3509 43.2058 58.0914 45.0131 55.3718 45.0131Z" fill="#5B82EF"/>
<path d="M62.0882 49.3787C62.0882 48.9734 61.7232 48.6448 61.2728 48.6448H49.4705C49.02 48.6448 48.655 48.9734 48.655 49.3787C48.655 49.784 49.02 50.1126 49.4705 50.1126H61.2728C61.7232 50.1125 62.0882 49.784 62.0882 49.3787Z" fill="#5B82EF"/>
<path d="M52.3757 51.967C51.9253 51.967 51.5603 52.2957 51.5603 52.7009C51.5603 53.1062 51.9253 53.4348 52.3757 53.4348H59.2857C59.7361 53.4348 60.1011 53.1062 60.1011 52.7009C60.1011 52.2957 59.7361 51.967 59.2857 51.967H52.3757Z" fill="#5B82EF"/>
</g>
<defs>
<clipPath id="clip0">
<rect width="55.5556" height="50" fill="white" transform="translate(14.7222 19.7397)"/>
</clipPath>
</defs>
</svg>
