<svg width="76" height="76" viewBox="0 0 76 76" fill="none" xmlns="http://www.w3.org/2000/svg">
<circle cx="38.4917" cy="38.0406" r="36.5" stroke="#5B82EF" stroke-width="2"/>
<g clip-path="url(#clip0)">
<path d="M57.0365 16.5458H16.953C15.6004 16.5458 14.5 17.6463 14.5 18.9988V54.0718C14.5 55.4245 15.6004 56.5249 16.953 56.5249H43.6754C44.1078 56.5249 44.4583 56.1744 44.4583 55.742C44.4583 55.3096 44.1079 54.959 43.6754 54.959H16.953C16.4638 54.959 16.0657 54.561 16.0657 54.0717V24.7922H47.0157C47.4481 24.7922 47.7986 24.4417 47.7986 24.0093C47.7986 23.5768 47.4482 23.2263 47.0157 23.2263H16.0657V18.9988C16.0657 18.5095 16.4638 18.1115 16.953 18.1115H57.0365C57.5258 18.1115 57.9238 18.5095 57.9238 18.9988V23.2263H55.3664C54.934 23.2263 54.5835 23.5768 54.5835 24.0093C54.5835 24.4417 54.9339 24.7922 55.3664 24.7922H57.9238V40.7107C57.9238 41.143 58.2742 41.4936 58.7067 41.4936C59.1392 41.4936 59.4897 41.1431 59.4897 40.7107V18.9988C59.4896 17.6463 58.3892 16.5458 57.0365 16.5458Z" fill="#5B82EF"/>
<path d="M52.0265 23.2264H50.3559C49.9235 23.2264 49.573 23.5769 49.573 24.0094C49.573 24.4418 49.9234 24.7923 50.3559 24.7923H52.0265C52.4589 24.7923 52.8094 24.4418 52.8094 24.0094C52.8094 23.5769 52.459 23.2264 52.0265 23.2264Z" fill="#5B82EF"/>
<path d="M18.6313 19.8861H18.6229C18.1905 19.8861 17.8442 20.2366 17.8442 20.669C17.8442 21.1014 18.1988 21.4519 18.6312 21.4519C19.0637 21.4519 19.4142 21.1014 19.4142 20.669C19.4142 20.2366 19.0638 19.8861 18.6313 19.8861Z" fill="#5B82EF"/>
<path d="M25.312 19.8861H25.3036C24.8712 19.8861 24.5249 20.2366 24.5249 20.669C24.5249 21.1014 24.8795 21.4519 25.3119 21.4519C25.7443 21.4519 26.0948 21.1014 26.0948 20.669C26.0948 20.2366 25.7444 19.8861 25.312 19.8861Z" fill="#5B82EF"/>
<path d="M21.9636 19.8861H21.9552C21.5228 19.8861 21.1765 20.2366 21.1765 20.669C21.1765 21.1014 21.5311 21.4519 21.9635 21.4519C22.3959 21.4519 22.7464 21.1014 22.7464 20.669C22.7464 20.2366 22.396 19.8861 21.9636 19.8861Z" fill="#5B82EF"/>
<path d="M55.3666 19.8861H28.6442C28.2118 19.8861 27.8613 20.2366 27.8613 20.669C27.8613 21.1014 28.2117 21.4519 28.6442 21.4519H55.3666C55.799 21.4519 56.1495 21.1014 56.1495 20.669C56.1495 20.2366 55.799 19.8861 55.3666 19.8861Z" fill="#5B82EF"/>
<path d="M55.3663 43.2681C50.3299 43.2681 46.2327 47.3654 46.2327 52.4017C46.2327 57.438 50.3299 61.5353 55.3663 61.5353C60.4026 61.5353 64.4998 57.438 64.4998 52.4017C64.4998 47.3654 60.4026 43.2681 55.3663 43.2681ZM55.3663 59.9696C51.1933 59.9696 47.7984 56.5747 47.7984 52.4017C47.7984 48.2288 51.1933 44.8338 55.3663 44.8338C59.5392 44.8338 62.9341 48.2288 62.9341 52.4017C62.9341 56.5747 59.5392 59.9696 55.3663 59.9696Z" fill="#5B82EF"/>
<path d="M59.5416 51.6189H56.1492V48.2265C56.1492 47.7941 55.7988 47.4435 55.3663 47.4435C54.9338 47.4435 54.5833 47.794 54.5833 48.2265V51.6189H51.1909C50.7584 51.6189 50.408 51.9694 50.408 52.4018C50.408 52.8342 50.7583 53.1848 51.1909 53.1848H54.5833V56.5772C54.5833 57.0096 54.9337 57.3601 55.3663 57.3601C55.7987 57.3601 56.1492 57.0097 56.1492 56.5772V53.1848H59.5416C59.9741 53.1848 60.3246 52.8343 60.3246 52.4018C60.3245 51.9694 59.9741 51.6189 59.5416 51.6189Z" fill="#5B82EF"/>
<path d="M23.6337 29.0719C22.2811 29.0719 21.1807 30.1723 21.1807 31.5249C21.1807 32.8776 22.2811 33.978 23.6337 33.978C24.9863 33.978 26.0867 32.8776 26.0867 31.5249C26.0867 30.1723 24.9863 29.0719 23.6337 29.0719ZM23.6337 32.4121C23.1444 32.4121 22.7464 32.0141 22.7464 31.5248C22.7464 31.0356 23.1444 30.6375 23.6337 30.6375C24.1229 30.6375 24.521 31.0356 24.521 31.5248C24.521 32.0141 24.1229 32.4121 23.6337 32.4121Z" fill="#5B82EF"/>
<path d="M52.0263 29.0719H28.6442C28.2118 29.0719 27.8613 29.4224 27.8613 29.8548C27.8613 30.2872 28.2117 30.6377 28.6442 30.6377H52.0263C52.4587 30.6377 52.8092 30.2872 52.8092 29.8548C52.8092 29.4224 52.4588 29.0719 52.0263 29.0719Z" fill="#5B82EF"/>
<path d="M30.3144 32.4122H28.6442C28.2118 32.4122 27.8613 32.7627 27.8613 33.1951C27.8613 33.6275 28.2117 33.978 28.6442 33.978H30.3144C30.7468 33.978 31.0973 33.6275 31.0973 33.1951C31.0973 32.7627 30.7469 32.4122 30.3144 32.4122Z" fill="#5B82EF"/>
<path d="M40.3349 32.4122H38.6647C38.2323 32.4122 37.8818 32.7627 37.8818 33.1951C37.8818 33.6275 38.2322 33.978 38.6647 33.978H40.3349C40.7673 33.978 41.1178 33.6275 41.1178 33.1951C41.1178 32.7627 40.7674 32.4122 40.3349 32.4122Z" fill="#5B82EF"/>
<path d="M35.3246 32.4122H33.6545C33.2221 32.4122 32.8716 32.7627 32.8716 33.1951C32.8716 33.6275 33.222 33.978 33.6545 33.978H35.3246C35.757 33.978 36.1075 33.6275 36.1075 33.1951C36.1075 32.7627 35.7571 32.4122 35.3246 32.4122Z" fill="#5B82EF"/>
<path d="M23.6337 37.4226C22.2811 37.4226 21.1807 38.523 21.1807 39.8756C21.1807 41.2283 22.2811 42.3287 23.6337 42.3287C24.9863 42.3287 26.0867 41.2283 26.0867 39.8756C26.0867 38.523 24.9863 37.4226 23.6337 37.4226ZM23.6337 40.7629C23.1444 40.7629 22.7464 40.3649 22.7464 39.8756C22.7464 39.3864 23.1444 38.9883 23.6337 38.9883C24.1229 38.9883 24.521 39.3864 24.521 39.8756C24.521 40.3649 24.1229 40.7629 23.6337 40.7629Z" fill="#5B82EF"/>
<path d="M52.0263 37.4226H28.6442C28.2118 37.4226 27.8613 37.7731 27.8613 38.2055C27.8613 38.6379 28.2117 38.9884 28.6442 38.9884H52.0263C52.4587 38.9884 52.8092 38.6379 52.8092 38.2055C52.8092 37.7731 52.4588 37.4226 52.0263 37.4226Z" fill="#5B82EF"/>
<path d="M30.3144 40.7629H28.6442C28.2118 40.7629 27.8613 41.1134 27.8613 41.5459C27.8613 41.9783 28.2117 42.3288 28.6442 42.3288H30.3144C30.7468 42.3288 31.0973 41.9783 31.0973 41.5459C31.0973 41.1134 30.7469 40.7629 30.3144 40.7629Z" fill="#5B82EF"/>
<path d="M40.3349 40.7629H38.6647C38.2323 40.7629 37.8818 41.1134 37.8818 41.5459C37.8818 41.9783 38.2322 42.3288 38.6647 42.3288H40.3349C40.7673 42.3288 41.1178 41.9783 41.1178 41.5459C41.1178 41.1134 40.7674 40.7629 40.3349 40.7629Z" fill="#5B82EF"/>
<path d="M35.3246 40.7629H33.6545C33.2221 40.7629 32.8716 41.1134 32.8716 41.5459C32.8716 41.9783 33.222 42.3288 33.6545 42.3288H35.3246C35.757 42.3288 36.1075 41.9783 36.1075 41.5459C36.1075 41.1134 35.7571 40.7629 35.3246 40.7629Z" fill="#5B82EF"/>
<path d="M23.6337 45.7734C22.2811 45.7734 21.1807 46.8738 21.1807 48.2265C21.1807 49.5791 22.2811 50.6795 23.6337 50.6795C24.9863 50.6795 26.0867 49.5791 26.0867 48.2265C26.0867 46.8738 24.9863 45.7734 23.6337 45.7734ZM23.6337 49.1137C23.1444 49.1137 22.7464 48.7156 22.7464 48.2264C22.7464 47.7371 23.1444 47.3391 23.6337 47.3391C24.1229 47.3391 24.521 47.7371 24.521 48.2264C24.521 48.7157 24.1229 49.1137 23.6337 49.1137Z" fill="#5B82EF"/>
<path d="M44.5106 45.7734H28.6442C28.2118 45.7734 27.8613 46.1239 27.8613 46.5563C27.8613 46.9888 28.2117 47.3393 28.6442 47.3393H44.5106C44.9431 47.3393 45.2936 46.9888 45.2936 46.5563C45.2936 46.1239 44.9431 45.7734 44.5106 45.7734Z" fill="#5B82EF"/>
<path d="M30.3144 49.1136H28.6442C28.2118 49.1136 27.8613 49.4641 27.8613 49.8966C27.8613 50.3289 28.2117 50.6795 28.6442 50.6795H30.3144C30.7468 50.6795 31.0973 50.329 31.0973 49.8966C31.0973 49.4642 30.7469 49.1136 30.3144 49.1136Z" fill="#5B82EF"/>
<path d="M40.3349 49.1136H38.6647C38.2323 49.1136 37.8818 49.4641 37.8818 49.8966C37.8818 50.3289 38.2322 50.6795 38.6647 50.6795H40.3349C40.7673 50.6795 41.1178 50.329 41.1178 49.8966C41.1178 49.4642 40.7674 49.1136 40.3349 49.1136Z" fill="#5B82EF"/>
<path d="M35.3246 49.1136H33.6545C33.2221 49.1136 32.8716 49.4641 32.8716 49.8966C32.8716 50.3289 33.222 50.6795 33.6545 50.6795H35.3246C35.757 50.6795 36.1075 50.329 36.1075 49.8966C36.1075 49.4642 35.7571 49.1136 35.3246 49.1136Z" fill="#5B82EF"/>
</g>
<defs>
<clipPath id="clip0">
<rect width="50" height="50" fill="white" transform="translate(14.5 14.0406)"/>
</clipPath>
</defs>
</svg>
