<?xml version="1.0" encoding="utf-8"?>
<!-- Generator: Adobe Illustrator 23.0.1, SVG Export Plug-In . SVG Version: 6.00 Build 0)  -->
<svg version="1.1" id="Layer_1" xmlns="http://www.w3.org/2000/svg" xmlns:xlink="http://www.w3.org/1999/xlink" x="0px" y="0px"
	 viewBox="0 0 76 76" style="enable-background:new 0 0 76 76;" xml:space="preserve">
<style type="text/css">
	.st0{clip-path:url(#SVGID_2_);}
	.st1{fill:#5B82EF;}
	.st2{fill:none;stroke:#5B82EF;stroke-width:2;}
</style>
<g>
	<g>
		<g>
			<defs>
				<rect id="SVGID_1_" x="15.4" y="14" width="48" height="48"/>
			</defs>
			<clipPath id="SVGID_2_">
				<use xlink:href="#SVGID_1_"  style="overflow:visible;"/>
			</clipPath>
			<g class="st0">
				<path class="st1" d="M29.3,40.8h-6.5c-1.5,0-2.7-1.2-2.7-2.7v-6.5c0-1.5,1.2-2.7,2.7-2.7h6.5c1.5,0,2.7,1.2,2.7,2.7v6.5
					C32.1,39.6,30.8,40.8,29.3,40.8z M22.9,30.7c-0.5,0-0.9,0.4-0.9,0.9v6.5c0,0.5,0.4,0.9,0.9,0.9h6.5c0.5,0,0.9-0.4,0.9-0.9v-6.5
					c0-0.5-0.4-0.9-0.9-0.9H22.9z"/>
				<path class="st1" d="M53.3,35.8H35.9c-0.5,0-0.9-0.4-0.9-0.9c0-0.5,0.4-0.9,0.9-0.9h17.4c0.5,0,0.9,0.4,0.9,0.9
					C54.2,35.3,53.8,35.8,53.3,35.8z"/>
				<path class="st1" d="M53.3,40.3H35.9c-0.5,0-0.9-0.4-0.9-0.9s0.4-0.9,0.9-0.9h17.4c0.5,0,0.9,0.4,0.9,0.9S53.8,40.3,53.3,40.3z"
					/>
				<path class="st1" d="M60.6,14h-24c-1.6,0-2.8,1.3-2.8,2.8v7.3H18.5c-1.7,0-3.1,1.4-3.1,3.1v25.3c0,1.7,1.4,3.1,3.1,3.1h4.9v5.5
					c0,0.3,0.2,0.6,0.5,0.8C24,62,24.1,62,24.3,62c0.2,0,0.3,0,0.5-0.1l10.9-6.3H55c1.7,0,3.1-1.4,3.1-3.1V31.2h2.6
					c1.6,0,2.8-1.3,2.8-2.8V16.9C63.4,15.3,62.2,14,60.6,14L60.6,14z M56.2,52.5c0,0.6-0.5,1.2-1.2,1.2H35.4c-0.2,0-0.3,0-0.5,0.1
					l-9.7,5.6v-4.8c0-0.5-0.4-0.9-0.9-0.9h-5.8c-0.6,0-1.2-0.5-1.2-1.2V27.2c0-0.6,0.5-1.2,1.2-1.2h15.3v2.3c0,1.6,1.3,2.8,2.8,2.8
					h19.6L56.2,52.5L56.2,52.5z M61.6,28.4c0,0.5-0.4,0.9-1,0.9h-24c-0.5,0-0.9-0.4-0.9-0.9V16.9c0-0.5,0.4-1,0.9-1h24
					c0.5,0,1,0.4,1,1V28.4z"/>
				<path class="st1" d="M55.8,18.9h-2.6c-1.7,0-3.2,1.2-3.6,2.8h-2c-0.4-1.6-1.9-2.8-3.6-2.8h-2.6c-2,0-3.7,1.7-3.7,3.7
					c0,2,1.7,3.7,3.7,3.7H44c1.7,0,3.2-1.2,3.6-2.8h2c0.4,1.6,1.9,2.8,3.6,2.8h2.6c2,0,3.7-1.7,3.7-3.7
					C59.5,20.6,57.8,18.9,55.8,18.9z M44,24.4h-2.6c-1,0-1.8-0.8-1.8-1.8c0-1,0.8-1.8,1.8-1.8H44c0.7,0,1.2,0.4,1.6,0.9H45
					c-0.5,0-0.9,0.4-0.9,0.9c0,0.5,0.4,0.9,0.9,0.9h0.6C45.3,24.1,44.7,24.4,44,24.4z M55.8,24.4h-2.6c-0.7,0-1.2-0.4-1.6-0.9h0.6
					c0.5,0,0.9-0.4,0.9-0.9c0-0.5-0.4-0.9-0.9-0.9h-0.6c0.3-0.5,0.9-0.9,1.6-0.9h2.6c1,0,1.8,0.8,1.8,1.8
					C57.6,23.6,56.8,24.4,55.8,24.4z"/>
				<path class="st1" d="M51.1,50.9H22.4c-1.3,0-2.3-1-2.3-2.3v-2.4c0-1.3,1-2.3,2.3-2.3h10.1c0.5,0,0.9,0.4,0.9,0.9
					c0,0.5-0.4,0.9-0.9,0.9H22.4c-0.2,0-0.4,0.2-0.4,0.4v2.4c0,0.2,0.2,0.4,0.4,0.4h28.7c0.2,0,0.4-0.2,0.4-0.4v-2.4
					c0-0.2-0.2-0.4-0.4-0.4H40.9c-0.5,0-0.9-0.4-0.9-0.9c0-0.5,0.4-0.9,0.9-0.9h10.1c1.3,0,2.3,1,2.3,2.3v2.4
					C53.3,49.9,52.3,50.9,51.1,50.9z"/>
				<path class="st1" d="M36.7,45.8L36.7,45.8c-0.5,0-0.9-0.4-0.9-0.9c0-0.5,0.4-0.9,0.9-0.9c0.5,0,0.9,0.4,0.9,0.9
					C37.7,45.4,37.3,45.8,36.7,45.8z"/>
			</g>
		</g>
		<circle class="st2" cx="37.9" cy="38" r="36.5"/>
	</g>
</g>
</svg>
