<svg width="76" height="76" viewBox="0 0 76 76" fill="none" xmlns="http://www.w3.org/2000/svg">
<circle cx="38.3618" cy="38.0406" r="36.5" stroke="#5B82EF" stroke-width="2"/>
<g clip-path="url(#clip0)">
<path d="M19.1743 55.3377V54.8377H18.6743H17.6353C16.1065 54.8377 14.8618 53.593 14.8618 52.0641V18.7281C14.8618 16.4195 16.7408 14.5406 19.0493 14.5406H57.6743C59.9829 14.5406 61.8618 16.4195 61.8618 18.7281V52.0641C61.8618 53.593 60.6172 54.8377 59.0883 54.8377H58.0493H57.5493V55.3377V60.1656V60.6656H58.0493H61.4243C61.6659 60.6656 61.8618 60.8615 61.8618 61.1031C61.8618 61.3447 61.6659 61.5406 61.4243 61.5406H15.2993C15.0577 61.5406 14.8618 61.3447 14.8618 61.1031C14.8618 60.8615 15.0577 60.6656 15.2993 60.6656H18.6743H19.1743V60.1656V55.3377ZM60.4868 21.2906H60.9868V20.7906V18.7281C60.9868 16.9011 59.5013 15.4156 57.6743 15.4156H19.0493C17.2224 15.4156 15.7368 16.9011 15.7368 18.7281V20.7954V21.3479L16.2866 21.2929C16.3021 21.2913 16.3169 21.2906 16.3309 21.2906H60.4868ZM24.6743 60.6656H25.1743V60.1656V51.7281V51.2281H24.6743H20.5493H20.0493V51.7281V60.1656V60.6656H20.5493H24.6743ZM35.1743 60.6656H35.6743V60.1656V41.3623V40.8623H35.1743H31.0493H30.5493V41.3623V60.1656V60.6656H31.0493H35.1743ZM45.6743 60.6656H46.1743V60.1656V49.2906V48.7906H45.6743H41.5493H41.0493V49.2906V60.1656V60.6656H41.5493H45.6743ZM52.0493 39.4625H51.5493V39.9625V43.7592C51.5493 44.0008 51.3534 44.1967 51.1118 44.1967C50.8702 44.1967 50.6743 44.0008 50.6743 43.7592V39.025C50.6743 38.7834 50.8702 38.5875 51.1118 38.5875H57.1118C57.3534 38.5875 57.5493 38.7834 57.5493 39.025V53.4627V53.9627H58.0493H59.0883C60.1356 53.9627 60.9868 53.1114 60.9868 52.0641V22.6656V22.1656H60.4868H16.3309C16.3169 22.1656 16.3021 22.1648 16.2866 22.1633L15.7368 22.1083V22.6608V52.0641C15.7368 53.1114 16.5879 53.9627 17.6353 53.9627H18.6743H19.1743V53.4627V50.7906C19.1743 50.549 19.3702 50.3531 19.6118 50.3531H25.6118C25.8534 50.3531 26.0493 50.549 26.0493 50.7906V60.1656V60.6656H26.5493H29.1743H29.6743V60.1656V40.4248C29.6743 40.1833 29.8702 39.9873 30.1118 39.9873H36.1118C36.3534 39.9873 36.5493 40.1833 36.5493 40.4248V60.1656V60.6656H37.0493H39.6743H40.1743V60.1656V48.3531C40.1743 48.1115 40.3702 47.9156 40.6118 47.9156H46.6118C46.8534 47.9156 47.0493 48.1115 47.0493 48.3531V60.1656V60.6656H47.5493H50.1743H50.6743V60.1656V50.064C50.6743 49.8224 50.8702 49.6265 51.1118 49.6265C51.3534 49.6265 51.5493 49.8224 51.5493 50.064V60.1656V60.6656H52.0493H56.1743H56.6743V60.1656V39.9625V39.4625H56.1743H52.0493Z" stroke="#5B82EF"/>
<path d="M56.3618 17.4156H35.1804C34.6626 17.4156 34.2429 17.8354 34.2429 18.3531C34.2429 18.8708 34.6626 19.2906 35.1804 19.2906H56.3618C56.8796 19.2906 57.2993 18.8708 57.2993 18.3531C57.2993 17.8354 56.8796 17.4156 56.3618 17.4156Z" fill="#5B82EF"/>
<path d="M24.7746 17.6903C24.6003 17.5159 24.3584 17.4156 24.1118 17.4156C23.8653 17.4156 23.6234 17.5158 23.449 17.6903C23.2746 17.8647 23.1743 18.1065 23.1743 18.3531C23.1743 18.5997 23.2746 18.8415 23.449 19.0158C23.6234 19.1903 23.8653 19.2906 24.1118 19.2906C24.3584 19.2906 24.6003 19.1903 24.7746 19.0158C24.949 18.8415 25.0493 18.5997 25.0493 18.3531C25.0493 18.1065 24.949 17.8647 24.7746 17.6903Z" fill="#5B82EF"/>
<path d="M21.0246 17.6903C20.8503 17.5159 20.6084 17.4156 20.3618 17.4156C20.1153 17.4156 19.8734 17.5158 19.699 17.6903C19.5246 17.8647 19.4243 18.1065 19.4243 18.3531C19.4243 18.5997 19.5246 18.8415 19.699 19.0158C19.8734 19.1903 20.1153 19.2906 20.3618 19.2906C20.6084 19.2906 20.8503 19.1903 21.0246 19.0158C21.199 18.8415 21.2993 18.5997 21.2993 18.3531C21.2993 18.1065 21.199 17.8647 21.0246 17.6903Z" fill="#5B82EF"/>
<path d="M28.5246 17.6903C28.3503 17.5159 28.1093 17.4156 27.8618 17.4156C27.6153 17.4156 27.3734 17.5158 27.199 17.6903C27.0246 17.8647 26.9243 18.1065 26.9243 18.3531C26.9243 18.5997 27.0246 18.8415 27.199 19.0158C27.3734 19.1903 27.6153 19.2906 27.8618 19.2906C28.1084 19.2906 28.3503 19.1903 28.5246 19.0158C28.699 18.8415 28.7993 18.5997 28.7993 18.3531C28.7993 18.1065 28.699 17.8647 28.5246 17.6903Z" fill="#5B82EF"/>
<path d="M51.7746 46.4378C51.6003 46.2625 51.3584 46.1631 51.1118 46.1631C50.8653 46.1631 50.6234 46.2626 50.449 46.4378C50.2746 46.6121 50.1743 46.854 50.1743 47.1006C50.1743 47.3471 50.2746 47.589 50.449 47.7634C50.6234 47.9377 50.8653 48.0381 51.1118 48.0381C51.3584 48.0381 51.6003 47.9378 51.7746 47.7634C51.949 47.589 52.0493 47.3471 52.0493 47.1006C52.0493 46.8531 51.949 46.6121 51.7746 46.4378Z" fill="#5B82EF"/>
<path d="M51.7345 32.4933L52.0366 32.1912L51.7854 31.8457C51.4404 31.3711 51.2368 30.7893 51.2368 30.1599C51.2368 28.575 52.5269 27.2849 54.1118 27.2849C55.6967 27.2849 56.9868 28.575 56.9868 30.1599C56.9868 31.7448 55.6967 33.0349 54.1118 33.0349C53.7398 33.0349 53.3847 32.9632 53.0579 32.8336L52.7524 32.7126L52.5201 32.9449L46.1259 39.3391L45.8596 39.6054L46.042 39.9348C46.2697 40.3463 46.3997 40.8185 46.3997 41.3216C46.3997 42.9065 45.1096 44.1966 43.5247 44.1966C41.9398 44.1966 40.6497 42.9065 40.6497 41.3216C40.6497 40.7695 40.8062 40.2544 41.077 39.8159L41.2849 39.4794L41.0052 39.1996L34.5665 32.761L34.3002 32.4947L33.9708 32.6771C33.5593 32.9048 33.0871 33.0348 32.5841 33.0348C32.1327 33.0348 31.7063 32.9301 31.3262 32.7443L31.0055 32.5875L30.753 32.8399L25.1507 38.4422L24.8845 38.7085L25.0668 39.0379C25.2946 39.4494 25.4246 39.9216 25.4246 40.4247C25.4246 42.0096 24.1344 43.2997 22.5496 43.2997C20.9647 43.2997 19.6746 42.0096 19.6746 40.4247C19.6746 38.8398 20.9647 37.5497 22.5496 37.5497C23.0526 37.5497 23.5247 37.6797 23.9363 37.9074L24.2657 38.0898L24.5319 37.8235L30.0681 32.2874L30.3485 32.0071L30.1394 31.6702C29.8668 31.2308 29.7091 30.714 29.7091 30.1599C29.7091 28.575 30.9992 27.2849 32.5841 27.2849C34.169 27.2849 35.4591 28.575 35.4591 30.1599C35.4591 30.663 35.3291 31.1352 35.1013 31.5467L34.919 31.8761L35.1853 32.1424L41.6877 38.6448L41.9407 38.8978L42.2618 38.7399C42.6432 38.5525 43.0713 38.4468 43.5247 38.4468C44.0278 38.4468 44.5 38.5768 44.9115 38.8045L45.2409 38.9869L45.5072 38.7206L51.7345 32.4933ZM20.5497 40.4249C20.5497 41.5281 21.4464 42.4249 22.5497 42.4249C23.6529 42.4249 24.5497 41.5281 24.5497 40.4249C24.5497 39.3217 23.6529 38.4249 22.5497 38.4249C21.4464 38.4249 20.5497 39.3217 20.5497 40.4249ZM30.5842 30.1599C30.5842 31.2631 31.481 32.1599 32.5842 32.1599C33.6874 32.1599 34.5842 31.2631 34.5842 30.1599C34.5842 29.0567 33.6874 28.1599 32.5842 28.1599C31.481 28.1599 30.5842 29.0567 30.5842 30.1599ZM41.5248 41.3218C41.5248 42.425 42.4216 43.3218 43.5248 43.3218C44.628 43.3218 45.5248 42.425 45.5248 41.3218C45.5248 40.2186 44.628 39.3218 43.5248 39.3218C42.4216 39.3218 41.5248 40.2186 41.5248 41.3218ZM52.1118 30.1599C52.1118 31.2631 53.0086 32.1599 54.1118 32.1599C55.215 32.1599 56.1118 31.2631 56.1118 30.1599C56.1118 29.0567 55.215 28.1599 54.1118 28.1599C53.0086 28.1599 52.1118 29.0567 52.1118 30.1599Z" stroke="#5B82EF"/>
<path d="M28.2678 26.1297C28.0925 25.9553 27.8515 25.8549 27.605 25.8549C27.3575 25.8549 27.1156 25.9552 26.9412 26.1297C26.7669 26.304 26.6675 26.5459 26.6675 26.7924C26.6675 27.039 26.7669 27.2809 26.9412 27.4552C27.1165 27.6296 27.3575 27.7299 27.605 27.7299C27.8515 27.7299 28.0925 27.6297 28.2678 27.4552C28.4422 27.2809 28.5425 27.039 28.5425 26.7924C28.5425 26.5459 28.4422 26.304 28.2678 26.1297Z" fill="#5B82EF"/>
<path d="M24.1118 25.855H19.6118C19.094 25.855 18.6743 26.2749 18.6743 26.7925C18.6743 27.3102 19.094 27.73 19.6118 27.73H24.1118C24.6296 27.73 25.0493 27.3102 25.0493 26.7925C25.0493 26.2749 24.6296 25.855 24.1118 25.855Z" fill="#5B82EF"/>
<path d="M24.1118 30.355H19.6118C19.094 30.355 18.6743 30.7749 18.6743 31.2925C18.6743 31.8102 19.094 32.23 19.6118 32.23H24.1118C24.6296 32.23 25.0493 31.8102 25.0493 31.2925C25.0493 30.7749 24.6296 30.355 24.1118 30.355Z" fill="#5B82EF"/>
</g>
<defs>
<clipPath id="clip0">
<rect width="48" height="48" fill="white" transform="translate(14.3618 14.0406)"/>
</clipPath>
</defs>
</svg>
